# xmcd
#
# Track frame offsets:
#	150
#	22920
#	46368
#	64822
#	109368
#	139182
#	160486
#	170128
#	189846
#
# Disc length: 2994 seconds
#
# Revision: 1
# Processed by: cddbd v1.5.2PL0 Copyright (c) Steve Scherf et al.
# Submitted via: audiograbber 1.83.01
#
DISCID=7c0bb009
DTITLE=Mississippi Mudsharks - Airplay
DYEAR=1994
DGENRE=Blues
TTITLE0=Sidetracked
TTITLE1=Workin' For Nickels and Dimes
TTITLE2=Bad Bad World
TTITLE3=So Much To Loose
TTITLE4=Can I Walk You Home
TTITLE5=Heads Up
TTITLE6=Flip Your Wig
TTITLE7=Left-overs
TTITLE8=She's Gone
EXTD=
EXTT0=
EXTT1=
EXTT2=
EXTT3=
EXTT4=
EXTT5=
EXTT6=
EXTT7=
EXTT8=
PLAYORDER=
